<svg xmlns="http://www.w3.org/2000/svg" viewBox="0 0 64 64" fill="none">
  <rect width="64" height="64" rx="12" fill="#0a0a0f"/>
  <path d="M8 28 C8 28, 4 20, 10 16 C14 13, 16 18, 16 18" stroke="#00ff88" stroke-width="3" stroke-linecap="round" fill="none"/>
  <path d="M56 28 C56 28, 60 20, 54 16 C50 13, 48 18, 48 18" stroke="#00ff88" stroke-width="3" stroke-linecap="round" fill="none"/>
  <ellipse cx="32" cy="36" rx="20" ry="16" fill="#1a1a2e"/>
  <ellipse cx="32" cy="34" rx="16" ry="12" fill="#111118"/>
  <circle cx="24" cy="30" r="3" fill="#00ff88"/>
  <circle cx="40" cy="30" r="3" fill="#00ff88"/>
  <ellipse cx="32" cy="38" rx="6" ry="4" fill="#1a1a2e" stroke="#00ff88" stroke-width="1"/>
  <circle cx="28" cy="39" r="1.5" fill="#0a0a0f"/>
  <circle cx="36" cy="39" r="1.5" fill="#0a0a0f"/>
  <path d="M20 46 L16 54" stroke="#00ff88" stroke-width="2.5" stroke-linecap="round"/>
  <path d="M26 46 L24 54" stroke="#00ff88" stroke-width="2.5" stroke-linecap="round"/>
  <path d="M38 46 L40 54" stroke="#00ff88" stroke-width="2.5" stroke-linecap="round"/>
  <path d="M44 46 L48 54" stroke="#00ff88" stroke-width="2.5" stroke-linecap="round"/>
</svg>
